# xmcd
#
# Track frame offsets:
#	150
#	16097
#	28859
#	39644
#	55211
#	75388
#	84835
#	107710
#	129229
#	146064
#	157460
#	174242
#	194082
#	210008
#	233592
#	253616
#	277290
#	298265
#	310601
#
# Disc length: 4363 seconds
#
# Revision: 1
# Processed by: cddbd v1.5.2PL0 Copyright (c) Steve Scherf et al.
# Submitted via: audiograbber 1.83.01
#
DISCID=06110913
DTITLE=GVB - Back Home In Indiana
DYEAR=2005
DGENRE=Gospel
TTITLE0=John The Revelator
TTITLE1=When We All Get Together With The Lord
TTITLE2=In That Great Getting' Up Morning
TTITLE3=My Lord And I
TTITLE4=Daystar (Shine Down On Me)
TTITLE5=Goodby World Goodby
TTITLE6=When He Was On The Cross (I Was On His Mind)
TTITLE7=The Old Rugged Cross Made The Difference
TTITLE8=When Jesus Lifts The Load
TTITLE9=Jesus Built This Church On Love
TTITLE10=The Old Landmark
TTITLE11=On My Way To Heaven
TTITLE12=Tears Are A Language God Understands
TTITLE13=Joy Comes In The Morning
TTITLE14=Wait'll You See My Brand New Home
TTITLE15=We'll Be There
TTITLE16=I'll Worship Only At The Feet Of Jesus
TTITLE17=Loving God Loving Each Other
TTITLE18=Without Him
EXTD=
EXTT0=
EXTT1=
EXTT2=
EXTT3=
EXTT4=
EXTT5=
EXTT6=
EXTT7=
EXTT8=
EXTT9=
EXTT10=
EXTT11=
EXTT12=
EXTT13=
EXTT14=
EXTT15=
EXTT16=
EXTT17=
EXTT18=
PLAYORDER=
